<svg width="280" height="95" viewBox="0 0 280 95" fill="none" xmlns="http://www.w3.org/2000/svg">
<g clip-path="url(#clip0)">
<path d="M32.89 30.25C32.89 31.72 32.37 33.34 31.33 35.12C28.39 39.96 23.12 42.38 15.53 42.38H14.23C13.5 42.38 13.04 42.35 12.86 42.29V60.76H0V16.02C0 12.46 1.98 9.71004 5.97 7.75004C8.96 6.28004 12.52 5.54004 16.62 5.54004C20.55 5.54004 24.04 6.28004 27.09 7.75004C30.95 9.71004 32.88 12.46 32.88 16.02V30.25H32.89ZM20.76 18.86C20.76 14.39 19.38 12.14 16.62 12.14C14.11 12.14 12.85 13.22 12.85 15.36V35.77H13.03H13.22C18.25 35.77 20.76 34.18 20.76 30.99V18.86Z" fill="#002B30"/>
<path d="M69.27 60.67H56.41V41.73C56.41 38.74 54.3 37.24 50.07 37.24H49.15V60.67H36.29V16.02C36.29 12.4 38.26 9.65004 42.19 7.75004C45.32 6.28004 48.89 5.54004 52.88 5.54004C56.88 5.54004 60.41 6.28004 63.48 7.75004C67.34 9.71004 69.28 12.46 69.28 16.02V25.66C69.28 30.8 66.02 33.6 59.47 34.02C66.02 34.57 69.28 37.14 69.28 41.73V60.67H69.27ZM57.05 25.66V18.86C57.05 14.39 55.67 12.14 52.92 12.14C50.41 12.14 49.15 13.22 49.15 15.36V31.17H49.24C54.45 31.17 57.05 29.33 57.05 25.66Z" fill="#002B30"/>
<path d="M86.92 60.75H74.05V5.61005H86.91V60.75H86.92Z" fill="#002B30"/>
<path d="M145.35 60.75H132.48V16.02C132.48 13.75 131.2 12.62 128.62 12.62C126.18 12.62 124.95 13.85 124.95 16.29V60.76H112.09V15.56C112.09 14.7 111.7 13.99 110.9 13.45C110.1 12.89 109.28 12.62 108.42 12.62C105.9 12.62 104.65 13.75 104.65 16.02V60.76H91.78V16.29C91.78 12.8 93.71 10.04 97.58 8.03004C100.71 6.37004 104.21 5.54004 108.08 5.54004C112.38 5.54004 115.87 6.55004 118.57 8.57004C121.52 6.55004 125.11 5.54004 129.34 5.54004C133.15 5.54004 136.61 6.37004 139.74 8.03004C143.48 10.05 145.36 12.8 145.36 16.29V60.75H145.35Z" fill="#002B30"/>
<path d="M178.61 60.75H150.22V5.61005H178.61V12.86H163.08V27.95H178.25V35.03H163.08V53.4H178.61V60.75Z" fill="#002B30"/>
<path d="M239.14 60.44L184.3 5.78001L202.97 5.76001L239.25 42.02L239.14 60.44Z" fill="#EF4E23"/>
<path d="M200.42 41.36L192.09 31.87L181.7 42.27L196.73 55.48L202.39 60.47C202.39 60.47 225.91 10.81 273.94 1.23001C276.26 0.76001 279.72 0.0100098 279.72 0.0100098C279.72 0.0100098 234.58 1.14441e-05 200.42 41.36Z" fill="#EF4E23"/>
<path d="M1.83008 90.46V76.98H3.12008V90.46H1.83008Z" fill="#555555"/>
<path d="M7.60998 90.46H6.47998V80.76H7.61998V82.11C8.07998 81.64 8.54998 81.25 9.02998 80.95C9.51998 80.65 10.1 80.5 10.78 80.5C11.39 80.5 11.95 80.6 12.47 80.81C12.99 81.02 13.43 81.37 13.78 81.89C14.02 82.24 14.16 82.6 14.21 82.97C14.25 83.34 14.28 83.72 14.28 84.12V90.47H13.14V84.14C13.14 83.27 12.94 82.61 12.55 82.17C12.16 81.73 11.51 81.51 10.6 81.51C10.25 81.51 9.91998 81.56 9.62998 81.67C9.33998 81.78 9.07998 81.92 8.83998 82.09C8.59998 82.26 8.40998 82.46 8.23998 82.69C8.07998 82.92 7.94998 83.15 7.85998 83.4C7.74998 83.71 7.67998 84.01 7.64998 84.3C7.61998 84.59 7.60998 84.9 7.60998 85.24V90.46Z" fill="#555555"/>
<path d="M16.04 81.7V80.76H17.5V79.22C17.5 78.45 17.66 77.83 17.97 77.39C18.28 76.95 18.82 76.72 19.58 76.72C19.76 76.72 19.92 76.73 20.07 76.74C20.22 76.75 20.37 76.77 20.53 76.8V77.83C20.28 77.77 20.05 77.74 19.85 77.74C19.56 77.74 19.33 77.79 19.17 77.9C19 78 18.88 78.14 18.81 78.31C18.73 78.48 18.69 78.68 18.67 78.9C18.65 79.12 18.64 79.34 18.64 79.57V80.77H20.54V81.71H18.64V90.47H17.5V81.7H16.04Z" fill="#555555"/>
<path d="M26.2102 90.72C25.5802 90.71 24.9902 90.59 24.4402 90.38C23.8902 90.17 23.4102 89.85 23.0002 89.43C22.5902 89.01 22.2602 88.47 22.0202 87.84C21.7802 87.21 21.6602 86.46 21.6602 85.61C21.6602 84.9 21.7502 84.23 21.9502 83.62C22.1402 83 22.4202 82.46 22.8002 82C23.1802 81.54 23.6502 81.17 24.2202 80.9C24.7902 80.63 25.4502 80.5 26.2102 80.5C26.9802 80.5 27.6502 80.63 28.2202 80.9C28.7902 81.17 29.2602 81.53 29.6402 81.99C30.0202 82.45 30.3002 82.99 30.4802 83.61C30.6602 84.23 30.7602 84.9 30.7602 85.61C30.7602 86.38 30.6502 87.08 30.4402 87.71C30.2202 88.33 29.9202 88.87 29.5202 89.32C29.1202 89.77 28.6402 90.12 28.0802 90.36C27.5102 90.6 26.8902 90.72 26.2102 90.72ZM29.5402 85.61C29.5402 85.04 29.4802 84.5 29.3502 84C29.2202 83.5 29.0302 83.07 28.7602 82.7C28.4902 82.33 28.1502 82.04 27.7402 81.83C27.3202 81.62 26.8102 81.51 26.2002 81.51C25.6102 81.51 25.1002 81.63 24.6702 81.86C24.2502 82.09 23.9002 82.4 23.6402 82.78C23.3702 83.16 23.1802 83.6 23.0502 84.09C22.9202 84.58 22.8602 85.09 22.8602 85.62C22.8602 86.22 22.9302 86.77 23.0802 87.28C23.2302 87.79 23.4402 88.22 23.7202 88.58C24.0002 88.94 24.3502 89.22 24.7602 89.42C25.1802 89.62 25.6602 89.72 26.2002 89.72C26.7902 89.72 27.3002 89.6 27.7302 89.37C28.1502 89.14 28.5002 88.83 28.7602 88.44C29.0302 88.05 29.2202 87.62 29.3502 87.13C29.4802 86.64 29.5402 86.14 29.5402 85.61Z" fill="#555555"/>
<path d="M34.0401 90.46H32.9001V80.76H34.0401V82.58H34.0801C34.4001 81.81 34.8001 81.27 35.3001 80.96C35.8001 80.65 36.4601 80.5 37.2801 80.5V81.72C36.6401 81.71 36.1001 81.81 35.6901 82.02C35.2701 82.23 34.9401 82.52 34.6901 82.88C34.4401 83.24 34.2701 83.67 34.1801 84.16C34.0901 84.65 34.0401 85.17 34.0401 85.7V90.46Z" fill="#555555"/>
<path d="M40.4901 90.46H39.3501V80.76H40.4901V82.22H40.5301C40.8201 81.66 41.2401 81.23 41.7801 80.94C42.3201 80.65 42.9201 80.5 43.5601 80.5C44.0201 80.5 44.4001 80.55 44.7201 80.65C45.0401 80.75 45.3001 80.88 45.5301 81.05C45.7501 81.22 45.9401 81.42 46.0801 81.64C46.2201 81.86 46.3501 82.11 46.4501 82.37C46.7801 81.73 47.2201 81.26 47.7701 80.96C48.3201 80.65 48.9501 80.5 49.6601 80.5C50.3301 80.5 50.8601 80.61 51.2601 80.83C51.6601 81.05 51.9701 81.33 52.1801 81.69C52.3901 82.05 52.5401 82.45 52.6101 82.92C52.6801 83.39 52.7101 83.86 52.7101 84.34V90.46H51.5701V83.76C51.5701 83.06 51.4201 82.51 51.1201 82.11C50.8201 81.71 50.2701 81.51 49.4601 81.51C49.0401 81.51 48.6401 81.6 48.2601 81.78C47.8701 81.96 47.5401 82.24 47.2501 82.61C47.1201 82.77 47.0201 82.96 46.9401 83.18C46.8601 83.4 46.7901 83.63 46.7401 83.86C46.6901 84.1 46.6601 84.33 46.6401 84.57C46.6201 84.81 46.6101 85.03 46.6101 85.23V90.45H45.4701V83.75C45.4701 83.05 45.3201 82.5 45.0201 82.1C44.7201 81.7 44.1701 81.5 43.3601 81.5C42.9401 81.5 42.5401 81.59 42.1601 81.77C41.7701 81.95 41.4401 82.23 41.1401 82.6C41.0101 82.76 40.9101 82.95 40.8301 83.17C40.7501 83.39 40.6801 83.62 40.6301 83.85C40.5801 84.09 40.5401 84.32 40.5301 84.56C40.5201 84.8 40.5001 85.02 40.5001 85.22V90.46H40.4901Z" fill="#555555"/>
<path d="M59.8201 84.81C60.0301 84.78 60.2901 84.75 60.5901 84.7C60.8901 84.65 61.1301 84.58 61.3201 84.49C61.5101 84.4 61.6301 84.26 61.6701 84.05C61.7101 83.84 61.7401 83.65 61.7401 83.48C61.7401 82.91 61.5501 82.43 61.1801 82.07C60.8101 81.71 60.1801 81.52 59.2901 81.52C58.9001 81.52 58.5401 81.55 58.2101 81.62C57.8801 81.69 57.5901 81.81 57.3501 81.98C57.1001 82.15 56.9001 82.37 56.7401 82.65C56.5801 82.93 56.4801 83.28 56.4301 83.71H55.2701C55.3101 83.14 55.4401 82.65 55.6701 82.24C55.9001 81.83 56.1901 81.5 56.5501 81.25C56.9101 81 57.3301 80.81 57.8001 80.69C58.2701 80.57 58.7801 80.51 59.3101 80.51C59.8001 80.51 60.2701 80.56 60.7001 80.67C61.1401 80.78 61.5201 80.95 61.8401 81.18C62.1601 81.41 62.4201 81.72 62.6001 82.11C62.7801 82.5 62.8801 82.97 62.8801 83.53V88.81C62.8801 89.25 62.9601 89.52 63.1201 89.64C63.2801 89.76 63.6001 89.73 64.0801 89.56V90.44C63.9901 90.46 63.8601 90.5 63.6901 90.55C63.5201 90.6 63.3501 90.62 63.1901 90.62C63.0101 90.62 62.8401 90.6 62.6801 90.56C62.4901 90.53 62.3401 90.48 62.2201 90.38C62.1101 90.29 62.0101 90.17 61.9401 90.04C61.8701 89.91 61.8201 89.77 61.8001 89.61C61.7801 89.45 61.7601 89.29 61.7601 89.11C61.2801 89.63 60.7301 90.03 60.1101 90.31C59.4901 90.58 58.8201 90.72 58.1001 90.72C57.6701 90.72 57.2601 90.66 56.8601 90.55C56.4601 90.44 56.1101 90.26 55.8101 90.03C55.5101 89.8 55.2701 89.5 55.0901 89.16C54.9101 88.82 54.8201 88.41 54.8201 87.93C54.8201 86.28 55.9601 85.31 58.2501 85.01L59.8201 84.81ZM61.7401 85.37C61.2601 85.57 60.7701 85.7 60.2801 85.76C59.7901 85.82 59.2901 85.87 58.8001 85.91C57.9301 85.97 57.2501 86.17 56.7601 86.49C56.2701 86.82 56.0301 87.31 56.0301 87.97C56.0301 88.27 56.0901 88.53 56.2101 88.75C56.3301 88.97 56.4901 89.15 56.6801 89.29C56.8701 89.43 57.1001 89.54 57.3601 89.61C57.6201 89.68 57.8801 89.71 58.1501 89.71C58.6101 89.71 59.0501 89.65 59.4801 89.54C59.9101 89.43 60.2901 89.26 60.6301 89.02C60.9601 88.79 61.2301 88.5 61.4401 88.14C61.6501 87.78 61.7401 87.36 61.7401 86.88V85.37Z" fill="#555555"/>
<path d="M69.3101 90.5C69.1701 90.53 68.9901 90.57 68.7601 90.63C68.5301 90.69 68.2801 90.72 68.0001 90.72C67.4301 90.72 67.0001 90.58 66.7001 90.3C66.4001 90.02 66.2501 89.52 66.2501 88.79V81.69H64.8701V80.75H66.2501V78.05H67.3901V80.75H69.2301V81.69H67.3901V88.34C67.3901 88.58 67.4001 88.78 67.4101 88.96C67.4201 89.13 67.4601 89.28 67.5201 89.39C67.5801 89.5 67.6801 89.58 67.8101 89.63C67.9401 89.68 68.1301 89.71 68.3701 89.71C68.5201 89.71 68.6801 89.7 68.8301 89.67C68.9801 89.64 69.1401 89.61 69.2901 89.58V90.5H69.3101Z" fill="#555555"/>
<path d="M71.24 78.65V76.98H72.49V78.65H71.24ZM71.3 90.46V80.76H72.44V90.46H71.3Z" fill="#555555"/>
<path d="M79.2502 90.72C78.6202 90.71 78.0302 90.59 77.4802 90.38C76.9302 90.17 76.4502 89.85 76.0402 89.43C75.6302 89.01 75.3002 88.47 75.0602 87.84C74.8202 87.21 74.7002 86.46 74.7002 85.61C74.7002 84.9 74.7902 84.23 74.9902 83.62C75.1802 83 75.4602 82.46 75.8402 82C76.2202 81.54 76.6902 81.17 77.2602 80.9C77.8302 80.63 78.4902 80.5 79.2502 80.5C80.0202 80.5 80.6902 80.63 81.2602 80.9C81.8302 81.17 82.3002 81.53 82.6802 81.99C83.0602 82.45 83.3402 82.99 83.5202 83.61C83.7002 84.23 83.8002 84.9 83.8002 85.61C83.8002 86.38 83.6902 87.08 83.4802 87.71C83.2602 88.33 82.9602 88.87 82.5602 89.32C82.1602 89.77 81.6802 90.12 81.1202 90.36C80.5502 90.6 79.9302 90.72 79.2502 90.72ZM82.5902 85.61C82.5902 85.04 82.5302 84.5 82.4002 84C82.2702 83.5 82.0802 83.07 81.8102 82.7C81.5402 82.33 81.2002 82.04 80.7902 81.83C80.3702 81.62 79.8602 81.51 79.2502 81.51C78.6602 81.51 78.1502 81.63 77.7202 81.86C77.3002 82.09 76.9502 82.4 76.6902 82.78C76.4302 83.16 76.2302 83.6 76.1002 84.09C75.9702 84.58 75.9102 85.09 75.9102 85.62C75.9102 86.22 75.9802 86.77 76.1302 87.28C76.2802 87.79 76.4902 88.22 76.7702 88.58C77.0502 88.94 77.4002 89.22 77.8102 89.42C78.2302 89.62 78.7102 89.72 79.2502 89.72C79.8402 89.72 80.3502 89.6 80.7802 89.37C81.2002 89.14 81.5502 88.83 81.8102 88.44C82.0802 88.05 82.2702 87.62 82.4002 87.13C82.5202 86.64 82.5902 86.14 82.5902 85.61Z" fill="#555555"/>
<path d="M87.0301 90.46H85.8901V80.76H87.0301V82.11C87.4901 81.64 87.9601 81.25 88.4401 80.95C88.9301 80.65 89.5101 80.5 90.1901 80.5C90.8001 80.5 91.3601 80.6 91.8801 80.81C92.4001 81.02 92.8401 81.37 93.1901 81.89C93.4301 82.24 93.5701 82.6 93.6201 82.97C93.6601 83.34 93.6901 83.72 93.6901 84.12V90.47H92.5501V84.14C92.5501 83.27 92.3501 82.61 91.9601 82.17C91.5701 81.73 90.9201 81.51 90.0101 81.51C89.6601 81.51 89.3301 81.56 89.0401 81.67C88.7501 81.78 88.4901 81.92 88.2501 82.09C88.0101 82.26 87.8201 82.46 87.6501 82.69C87.4901 82.92 87.3601 83.15 87.2701 83.4C87.1601 83.71 87.0901 84.01 87.0601 84.3C87.0301 84.59 87.0201 84.9 87.0201 85.24V90.46H87.0301Z" fill="#555555"/>
<path d="M102.41 86.44C102.46 87.04 102.6 87.55 102.82 87.97C103.04 88.39 103.33 88.73 103.67 88.99C104.02 89.25 104.42 89.44 104.88 89.56C105.34 89.68 105.82 89.74 106.34 89.74C106.95 89.74 107.47 89.67 107.91 89.52C108.35 89.37 108.71 89.17 108.99 88.91C109.27 88.65 109.47 88.36 109.61 88.02C109.74 87.68 109.81 87.33 109.81 86.95C109.81 86.43 109.69 86 109.45 85.68C109.21 85.36 108.9 85.09 108.51 84.88C108.12 84.67 107.68 84.51 107.18 84.38C106.68 84.25 106.17 84.13 105.64 84.01C105.11 83.89 104.6 83.75 104.1 83.59C103.6 83.43 103.16 83.21 102.77 82.93C102.38 82.65 102.07 82.3 101.83 81.87C101.59 81.44 101.47 80.89 101.47 80.23C101.47 79.77 101.57 79.32 101.76 78.88C101.96 78.44 102.25 78.06 102.63 77.72C103.01 77.38 103.5 77.11 104.08 76.91C104.66 76.71 105.33 76.61 106.09 76.61C106.86 76.61 107.53 76.72 108.11 76.93C108.69 77.14 109.16 77.43 109.54 77.8C109.92 78.17 110.2 78.6 110.39 79.08C110.58 79.57 110.68 80.08 110.68 80.63H109.45C109.45 80.12 109.36 79.67 109.17 79.3C108.99 78.93 108.74 78.62 108.42 78.38C108.1 78.14 107.74 77.97 107.34 77.86C106.93 77.75 106.52 77.69 106.09 77.69C105.43 77.69 104.88 77.78 104.43 77.96C103.98 78.14 103.62 78.38 103.36 78.66C103.1 78.94 102.91 79.27 102.81 79.61C102.71 79.96 102.69 80.31 102.75 80.66C102.83 81.1 103 81.45 103.28 81.71C103.56 81.97 103.9 82.19 104.3 82.36C104.71 82.53 105.15 82.67 105.64 82.77C106.13 82.88 106.62 82.99 107.13 83.11C107.64 83.23 108.13 83.37 108.6 83.53C109.07 83.69 109.49 83.91 109.86 84.19C110.23 84.47 110.52 84.82 110.74 85.25C110.96 85.68 111.07 86.22 111.07 86.87C111.07 88.12 110.63 89.09 109.76 89.77C108.89 90.46 107.66 90.8 106.08 90.8C105.37 90.8 104.71 90.71 104.11 90.53C103.5 90.35 102.98 90.07 102.54 89.71C102.1 89.34 101.75 88.89 101.51 88.34C101.26 87.8 101.14 87.16 101.14 86.42H102.41V86.44Z" fill="#555555"/>
<path d="M113.22 93.08C113.37 93.11 113.53 93.13 113.68 93.16C113.84 93.18 114 93.2 114.16 93.2C114.48 93.2 114.74 93.1 114.94 92.9C115.14 92.7 115.31 92.46 115.44 92.18C115.57 91.9 115.68 91.61 115.77 91.3C115.86 90.99 115.96 90.74 116.07 90.52L112.26 80.76H113.53L116.68 89.09L119.83 80.76H121.06L117.4 90.33C117.17 90.94 116.95 91.49 116.75 91.98C116.54 92.47 116.32 92.88 116.09 93.23C115.86 93.57 115.6 93.84 115.31 94.02C115.02 94.2 114.69 94.29 114.29 94.29C114.09 94.29 113.89 94.28 113.71 94.25C113.53 94.22 113.36 94.19 113.21 94.16V93.08H113.22Z" fill="#555555"/>
<path d="M123.45 87.43C123.63 88.27 123.95 88.86 124.41 89.2C124.87 89.54 125.53 89.71 126.39 89.71C126.81 89.71 127.17 89.66 127.47 89.56C127.77 89.46 128.02 89.33 128.22 89.16C128.42 88.99 128.56 88.8 128.67 88.59C128.77 88.38 128.82 88.15 128.82 87.92C128.82 87.45 128.66 87.09 128.36 86.86C128.05 86.63 127.66 86.45 127.19 86.32C126.72 86.19 126.22 86.08 125.67 85.98C125.12 85.88 124.62 85.75 124.15 85.56C123.68 85.37 123.29 85.1 122.98 84.75C122.67 84.4 122.52 83.91 122.52 83.27C122.52 82.46 122.82 81.79 123.42 81.28C124.02 80.77 124.87 80.5 125.97 80.5C127.03 80.5 127.9 80.73 128.56 81.2C129.22 81.67 129.63 82.45 129.77 83.55H128.61C128.51 82.8 128.22 82.27 127.75 81.97C127.28 81.66 126.68 81.51 125.96 81.51C125.24 81.51 124.69 81.66 124.31 81.97C123.93 82.28 123.74 82.68 123.74 83.18C123.74 83.62 123.89 83.95 124.2 84.18C124.51 84.41 124.9 84.6 125.37 84.74C125.84 84.88 126.34 85.01 126.89 85.12C127.43 85.23 127.94 85.39 128.41 85.6C128.88 85.81 129.27 86.08 129.58 86.43C129.89 86.78 130.04 87.27 130.04 87.89C130.04 88.35 129.94 88.76 129.74 89.12C129.54 89.48 129.26 89.77 128.91 90.01C128.56 90.25 128.13 90.43 127.65 90.54C127.16 90.66 126.63 90.72 126.05 90.72C125.47 90.72 124.95 90.64 124.5 90.47C124.05 90.3 123.67 90.07 123.35 89.77C123.03 89.47 122.79 89.12 122.61 88.72C122.43 88.32 122.33 87.89 122.31 87.43H123.45Z" fill="#555555"/>
<path d="M135.72 90.5C135.58 90.53 135.4 90.57 135.17 90.63C134.94 90.69 134.69 90.72 134.41 90.72C133.84 90.72 133.41 90.58 133.11 90.3C132.81 90.02 132.66 89.52 132.66 88.79V81.69H131.28V80.75H132.66V78.05H133.8V80.75H135.64V81.69H133.8V88.34C133.8 88.58 133.81 88.78 133.82 88.96C133.83 89.13 133.87 89.28 133.93 89.39C133.99 89.5 134.09 89.58 134.22 89.63C134.35 89.68 134.54 89.71 134.78 89.71C134.93 89.71 135.09 89.7 135.24 89.67C135.39 89.64 135.55 89.61 135.7 89.58V90.5H135.72Z" fill="#555555"/>
<path d="M138.25 85.88C138.25 86.4 138.32 86.9 138.46 87.37C138.6 87.84 138.8 88.24 139.08 88.59C139.35 88.93 139.7 89.21 140.11 89.41C140.53 89.62 141.01 89.72 141.55 89.72C142.3 89.72 142.93 89.53 143.47 89.14C144.01 88.75 144.35 88.2 144.53 87.49H145.8C145.66 87.95 145.48 88.38 145.25 88.77C145.02 89.16 144.74 89.51 144.4 89.8C144.06 90.09 143.65 90.32 143.19 90.48C142.73 90.64 142.18 90.72 141.56 90.72C140.77 90.72 140.1 90.59 139.53 90.33C138.96 90.07 138.49 89.71 138.13 89.25C137.76 88.79 137.49 88.26 137.31 87.64C137.13 87.02 137.04 86.36 137.04 85.65C137.04 84.94 137.14 84.27 137.35 83.65C137.56 83.03 137.86 82.48 138.24 82.01C138.63 81.54 139.1 81.17 139.65 80.9C140.21 80.63 140.84 80.5 141.55 80.5C142.9 80.5 143.97 80.96 144.74 81.88C145.51 82.8 145.89 84.13 145.88 85.88H138.25ZM144.66 84.94C144.66 84.47 144.59 84.02 144.46 83.6C144.33 83.18 144.13 82.82 143.87 82.51C143.61 82.2 143.29 81.96 142.89 81.78C142.5 81.6 142.05 81.51 141.54 81.51C141.03 81.51 140.59 81.6 140.2 81.79C139.81 81.98 139.49 82.23 139.21 82.54C138.94 82.85 138.72 83.21 138.56 83.63C138.39 84.04 138.29 84.48 138.24 84.94H144.66Z" fill="#555555"/>
<path d="M149.08 90.46H147.94V80.76H149.08V82.22H149.12C149.41 81.66 149.83 81.23 150.37 80.94C150.91 80.65 151.51 80.5 152.15 80.5C152.61 80.5 152.99 80.55 153.31 80.65C153.63 80.75 153.89 80.88 154.12 81.05C154.34 81.22 154.53 81.42 154.67 81.64C154.81 81.86 154.94 82.11 155.04 82.37C155.37 81.73 155.81 81.26 156.36 80.96C156.91 80.65 157.54 80.5 158.25 80.5C158.92 80.5 159.45 80.61 159.85 80.83C160.25 81.05 160.56 81.33 160.77 81.69C160.98 82.05 161.13 82.45 161.2 82.92C161.27 83.39 161.3 83.86 161.3 84.34V90.46H160.16V83.76C160.16 83.06 160.01 82.51 159.71 82.11C159.41 81.71 158.86 81.51 158.05 81.51C157.63 81.51 157.23 81.6 156.85 81.78C156.46 81.96 156.13 82.24 155.84 82.61C155.71 82.77 155.61 82.96 155.53 83.18C155.45 83.4 155.38 83.63 155.33 83.86C155.28 84.1 155.25 84.33 155.23 84.57C155.21 84.81 155.2 85.03 155.2 85.23V90.45H154.06V83.75C154.06 83.05 153.91 82.5 153.61 82.1C153.31 81.7 152.76 81.5 151.95 81.5C151.53 81.5 151.13 81.59 150.75 81.77C150.36 81.95 150.03 82.23 149.73 82.6C149.6 82.76 149.5 82.95 149.42 83.17C149.34 83.39 149.27 83.62 149.22 83.85C149.17 84.09 149.13 84.32 149.12 84.56C149.11 84.8 149.09 85.02 149.09 85.22V90.46H149.08Z" fill="#555555"/>
<path d="M164.56 87.43C164.74 88.27 165.06 88.86 165.52 89.2C165.98 89.54 166.64 89.71 167.5 89.71C167.92 89.71 168.28 89.66 168.58 89.56C168.88 89.46 169.13 89.33 169.33 89.16C169.53 88.99 169.67 88.8 169.78 88.59C169.88 88.38 169.93 88.15 169.93 87.92C169.93 87.45 169.77 87.09 169.47 86.86C169.16 86.63 168.77 86.45 168.3 86.32C167.83 86.19 167.33 86.08 166.78 85.98C166.23 85.88 165.73 85.75 165.26 85.56C164.79 85.37 164.4 85.1 164.09 84.75C163.78 84.4 163.63 83.91 163.63 83.27C163.63 82.46 163.93 81.79 164.53 81.28C165.13 80.77 165.98 80.5 167.08 80.5C168.14 80.5 169.01 80.73 169.67 81.2C170.33 81.67 170.74 82.45 170.88 83.55H169.72C169.62 82.8 169.33 82.27 168.86 81.97C168.39 81.66 167.79 81.51 167.07 81.51C166.35 81.51 165.8 81.66 165.42 81.97C165.04 82.28 164.85 82.68 164.85 83.18C164.85 83.62 165 83.95 165.31 84.18C165.62 84.41 166.01 84.6 166.48 84.74C166.95 84.88 167.45 85.01 168 85.12C168.54 85.23 169.05 85.39 169.52 85.6C169.99 85.81 170.38 86.08 170.69 86.43C171 86.78 171.15 87.27 171.15 87.89C171.15 88.35 171.05 88.76 170.85 89.12C170.65 89.48 170.37 89.77 170.02 90.01C169.67 90.25 169.24 90.43 168.76 90.54C168.27 90.66 167.74 90.72 167.16 90.72C166.58 90.72 166.06 90.64 165.61 90.47C165.16 90.3 164.78 90.07 164.46 89.77C164.14 89.47 163.9 89.12 163.72 88.72C163.54 88.32 163.44 87.89 163.42 87.43H164.56Z" fill="#555555"/>
<path d="M178.83 90.46V76.98H180.12V89.37H187.44V90.46H178.83Z" fill="#555555"/>
<path d="M189.32 78.65V76.98H190.57V78.65H189.32ZM189.37 90.46V80.76H190.51V90.46H189.37Z" fill="#555555"/>
<path d="M194.4 90.46H193.26V80.76H194.4V82.22H194.44C194.73 81.66 195.15 81.23 195.69 80.94C196.23 80.65 196.83 80.5 197.47 80.5C197.93 80.5 198.31 80.55 198.63 80.65C198.95 80.75 199.21 80.88 199.44 81.05C199.66 81.22 199.85 81.42 199.99 81.64C200.13 81.86 200.26 82.11 200.36 82.37C200.69 81.73 201.13 81.26 201.68 80.96C202.23 80.65 202.86 80.5 203.57 80.5C204.24 80.5 204.77 80.61 205.17 80.83C205.57 81.05 205.88 81.33 206.09 81.69C206.3 82.05 206.45 82.45 206.52 82.92C206.59 83.39 206.62 83.86 206.62 84.34V90.46H205.48V83.76C205.48 83.06 205.33 82.51 205.03 82.11C204.73 81.71 204.18 81.51 203.37 81.51C202.95 81.51 202.55 81.6 202.17 81.78C201.78 81.96 201.45 82.24 201.16 82.61C201.03 82.77 200.93 82.96 200.85 83.18C200.77 83.4 200.7 83.63 200.65 83.86C200.6 84.1 200.57 84.33 200.55 84.57C200.53 84.81 200.52 85.03 200.52 85.23V90.45H199.38V83.75C199.38 83.05 199.23 82.5 198.93 82.1C198.63 81.7 198.08 81.5 197.27 81.5C196.85 81.5 196.45 81.59 196.07 81.77C195.68 81.95 195.35 82.23 195.05 82.6C194.92 82.76 194.82 82.95 194.74 83.17C194.66 83.39 194.59 83.62 194.54 83.85C194.49 84.09 194.45 84.32 194.44 84.56C194.43 84.8 194.41 85.02 194.41 85.22V90.46H194.4Z" fill="#555555"/>
<path d="M209.33 78.65V76.98H210.58V78.65H209.33ZM209.39 90.46V80.76H210.53V90.46H209.39Z" fill="#555555"/>
<path d="M216.88 90.5C216.74 90.53 216.56 90.57 216.33 90.63C216.1 90.69 215.85 90.72 215.57 90.72C215 90.72 214.57 90.58 214.27 90.3C213.97 90.02 213.82 89.52 213.82 88.79V81.69H212.44V80.75H213.82V78.05H214.96V80.75H216.8V81.69H214.96V88.34C214.96 88.58 214.97 88.78 214.98 88.96C214.99 89.13 215.03 89.28 215.09 89.39C215.15 89.5 215.25 89.58 215.38 89.63C215.51 89.68 215.7 89.71 215.94 89.71C216.09 89.71 216.25 89.7 216.4 89.67C216.55 89.64 216.71 89.61 216.86 89.58V90.5H216.88Z" fill="#555555"/>
<path d="M219.4 85.88C219.4 86.4 219.47 86.9 219.61 87.37C219.75 87.84 219.95 88.24 220.23 88.59C220.5 88.93 220.85 89.21 221.26 89.41C221.68 89.62 222.16 89.72 222.7 89.72C223.45 89.72 224.08 89.53 224.62 89.14C225.16 88.75 225.5 88.2 225.68 87.49H226.95C226.81 87.95 226.63 88.38 226.4 88.77C226.17 89.16 225.89 89.51 225.55 89.8C225.21 90.09 224.8 90.32 224.34 90.48C223.88 90.64 223.33 90.72 222.71 90.72C221.92 90.72 221.25 90.59 220.68 90.33C220.11 90.07 219.64 89.71 219.28 89.25C218.91 88.79 218.64 88.26 218.46 87.64C218.28 87.02 218.19 86.36 218.19 85.65C218.19 84.94 218.29 84.27 218.5 83.65C218.71 83.03 219.01 82.48 219.39 82.01C219.78 81.54 220.25 81.17 220.8 80.9C221.36 80.63 221.99 80.5 222.7 80.5C224.05 80.5 225.12 80.96 225.89 81.88C226.66 82.8 227.04 84.13 227.03 85.88H219.4ZM225.82 84.94C225.82 84.47 225.75 84.02 225.62 83.6C225.49 83.18 225.29 82.82 225.03 82.51C224.77 82.2 224.45 81.96 224.05 81.78C223.66 81.6 223.21 81.51 222.7 81.51C222.19 81.51 221.75 81.6 221.36 81.79C220.97 81.98 220.65 82.23 220.37 82.54C220.1 82.85 219.88 83.21 219.72 83.63C219.55 84.04 219.45 84.48 219.4 84.94H225.82Z" fill="#555555"/>
<path d="M236.84 76.98H237.98V90.46H236.84V88.76H236.8C236.64 89.09 236.42 89.37 236.17 89.61C235.91 89.85 235.63 90.06 235.32 90.22C235.01 90.38 234.69 90.51 234.36 90.59C234.03 90.67 233.71 90.72 233.39 90.72C232.59 90.72 231.92 90.59 231.36 90.33C230.8 90.07 230.35 89.71 229.98 89.25C229.62 88.79 229.36 88.25 229.19 87.63C229.03 87.01 228.94 86.34 228.94 85.63C228.94 84.96 229.03 84.31 229.21 83.68C229.39 83.06 229.66 82.51 230.02 82.04C230.38 81.57 230.84 81.2 231.39 80.92C231.94 80.64 232.59 80.5 233.33 80.5C234.03 80.5 234.69 80.65 235.33 80.96C235.97 81.27 236.47 81.72 236.84 82.32V76.98ZM236.84 85.58C236.84 85.03 236.76 84.51 236.61 84.02C236.46 83.53 236.24 83.1 235.96 82.73C235.67 82.36 235.33 82.07 234.92 81.85C234.51 81.63 234.04 81.52 233.53 81.52C232.94 81.52 232.42 81.64 231.99 81.87C231.56 82.1 231.21 82.42 230.93 82.82C230.65 83.22 230.45 83.69 230.32 84.22C230.19 84.75 230.14 85.32 230.17 85.93C230.17 86.54 230.26 87.08 230.43 87.55C230.6 88.02 230.84 88.41 231.14 88.74C231.44 89.07 231.8 89.31 232.2 89.48C232.6 89.65 233.05 89.73 233.53 89.73C234.06 89.73 234.53 89.62 234.95 89.41C235.37 89.2 235.71 88.91 235.99 88.54C236.27 88.17 236.48 87.73 236.63 87.23C236.76 86.71 236.84 86.16 236.84 85.58Z" fill="#555555"/>
</g>
<defs>
<clipPath id="clip0">
<rect width="279.72" height="94.28" fill="white"/>
</clipPath>
</defs>
</svg>
